<?xml version="1.0" encoding="utf-8"?>
<!-- Generator: Adobe Illustrator 16.0.0, SVG Export Plug-In . SVG Version: 6.00 Build 0)  -->
<!DOCTYPE svg PUBLIC "-//W3C//DTD SVG 1.1//EN" "http://www.w3.org/Graphics/SVG/1.1/DTD/svg11.dtd">
<svg version="1.1" id="Layer_1" xmlns="http://www.w3.org/2000/svg" xmlns:xlink="http://www.w3.org/1999/xlink" x="0px" y="0px"
	 width="32px" height="32px" viewBox="0 0 32 32" enable-background="new 0 0 32 32" xml:space="preserve">
<path fill-rule="evenodd" clip-rule="evenodd" fill="#E64A55" d="M17,23.036v-13.1c0,0,6.697-1.223,11.358,3.733L17,23.036z"/>
<path fill-rule="evenodd" clip-rule="evenodd" fill="#E64A55" d="M17,7.174V2.095l8.566,6.741C25.566,8.836,21,6.704,17,7.174z"/>
<path fill-rule="evenodd" clip-rule="evenodd" fill="#E64A55" d="M13,23.08V9.98c0,0-6.697-1.223-11.357,3.733L13,23.08z"/>
<path fill-rule="evenodd" clip-rule="evenodd" fill="#E64A55" d="M13,7.219V2.14L4.434,8.881C4.434,8.881,11,6.749,13,7.219z"/>
<polygon fill="#E64A55" points="15.742,30.285 15.674,30.193 14.385,28.512 13.404,30.3 13.396,30.302 12.455,28.512 11.197,29.642 
	11.047,24.065 14.914,26.449 19,24.044 19,29.907 17.387,28.512 "/>
</svg>
