<?xml version="1.0" encoding="utf-8"?>
<!-- Generator: Adobe Illustrator 16.0.0, SVG Export Plug-In . SVG Version: 6.00 Build 0)  -->
<!DOCTYPE svg PUBLIC "-//W3C//DTD SVG 1.1//EN" "http://www.w3.org/Graphics/SVG/1.1/DTD/svg11.dtd">
<svg version="1.1" id="Layer_1" xmlns="http://www.w3.org/2000/svg" xmlns:xlink="http://www.w3.org/1999/xlink" x="0px" y="0px"
	 width="32px" height="32px" viewBox="0 0 32 32" enable-background="new 0 0 32 32" xml:space="preserve">
<g>
	<g>
		<g>
			<path fill="#E64A55" d="M29.238,4.346c0,0-6.881-1.138-13.284-4.166C9.552,3.208,2.615,4.292,2.615,4.292
				C1.812,24.076,15.954,28.947,15.954,28.947S30.039,24.13,29.238,4.346z"/>
			<path fill="#FFFFFF" d="M27.565,5.206c0,0-5.98-0.989-11.547-3.622C10.453,4.216,4.422,5.159,4.422,5.159
				C3.724,22.357,16.018,26.592,16.018,26.592S28.264,22.404,27.565,5.206z"/>
			<path fill="#FFFFFF" d="M15.951,0.271l0.271,0.132c2.372,1.165,4.614,2.362,7.244,3.076c0.439,0.119,4.189,0.868,5.658,1.078
				c0.005,1.79-0.152,3.8-0.454,5.829c-0.305,2.042-0.795,3.992-1.457,5.792c-1.104,3.005-2.703,5.662-4.753,7.896
				c-0.804,0.877-1.682,1.688-2.606,2.416c-0.744,0.585-1.519,1.115-2.305,1.578c-0.657,0.385-1.212,0.657-1.59,0.83
				c-0.343-0.156-0.845-0.4-1.444-0.748c-0.784-0.451-1.557-0.971-2.3-1.543c-0.933-0.722-1.818-1.528-2.631-2.398
				c-2.082-2.231-3.708-4.893-4.833-7.911c-0.635-1.703-1.123-3.613-1.49-5.838C2.768,7.474,2.729,5.162,2.729,4.49
				c0.465-0.078,1.056-0.176,1.132-0.183C4.522,4.244,5.183,4.125,5.859,4c3.216-0.6,6.289-1.767,9.133-3.277
				C15.293,0.563,15.743,0.362,15.951,0.271 M15.959,0c0,0-0.679,0.289-1.096,0.51C12.051,2.006,8.98,3.17,5.809,3.76
				C5.157,3.882,4.456,3.995,3.817,4.092c-0.13,0.013-1.346,0.194-1.346,0.194s-0.064,2.598,0.532,6.212
				c0.341,2.073,0.82,4.055,1.5,5.881c1.137,3.048,2.779,5.736,4.884,7.99c0.822,0.882,1.718,1.698,2.662,2.426
				c0.752,0.581,1.535,1.106,2.328,1.564c0.657,0.379,1.203,0.643,1.581,0.81c0.408-0.181,1.009-0.471,1.728-0.894
				c0.795-0.469,1.581-1.006,2.333-1.596c0.937-0.737,1.824-1.56,2.639-2.446c2.07-2.257,3.687-4.94,4.801-7.976
				c0.668-1.814,1.16-3.778,1.467-5.837c0.281-1.879,0.477-3.999,0.456-6.074c-1.252-0.154-5.184-0.95-5.823-1.151
				C20.797,2.511,18.472,1.231,15.959,0L15.959,0z"/>
		</g>
		<g opacity="0.3">
			<g>
				
					<radialGradient id="SVGID_1_" cx="6.7373" cy="7.0586" r="20.8491" gradientTransform="matrix(1 0 0 0.963 0 3.0498)" gradientUnits="userSpaceOnUse">
					<stop  offset="0.5179" style="stop-color:#FFFFFF"/>
					<stop  offset="1" style="stop-color:#000000"/>
				</radialGradient>
				<path opacity="0.1" fill="url(#SVGID_1_)" d="M20.672,15.367c-0.235,0.415-0.484,0.825-0.749,1.23
					c-2.253,3.448-5.272,6.129-8.665,7.939c0.449,0.452,0.911,0.881,1.382,1.282c1.118,0.954,2.29,1.756,3.488,2.386
					c1.656-0.898,3.175-1.995,4.52-3.261c1.244-1.172,2.364-2.515,3.333-3.989c1.604-2.448,2.814-5.294,3.6-8.456
					c0.037-0.144,0.068-0.293,0.095-0.444c-0.174,0.005-0.347,0.007-0.521,0.007c-1.473,0-2.741-0.198-3.545-0.364
					c-0.52-0.108-0.911-0.214-1.151-0.285c-0.017,0.048-0.032,0.095-0.05,0.144C21.987,12.988,21.406,14.261,20.672,15.367z"/>
				
					<radialGradient id="SVGID_2_" cx="11.1362" cy="3.0122" r="17.6452" gradientTransform="matrix(1 0 0 0.963 0 3.0498)" gradientUnits="userSpaceOnUse">
					<stop  offset="0.5179" style="stop-color:#FFFFFF"/>
					<stop  offset="1" style="stop-color:#000000"/>
				</radialGradient>
				<path opacity="0.1" fill="url(#SVGID_2_)" d="M28.55,4.377c-1.529-0.215-3.395-0.675-4.934-1.098
					c0.1,1.993-0.082,4.024-0.556,6.036c0.711,0.158,1.441,0.279,2.18,0.362c0.776,0.088,1.559,0.132,2.321,0.132
					c0.189,0,0.381-0.003,0.569-0.008c0.27-1.67,0.37-3.083,0.404-3.988C28.562,5.134,28.557,4.635,28.55,4.377z"/>
			</g>
			
				<radialGradient id="SVGID_3_" cx="6.7197" cy="5.0054" r="20.5968" gradientTransform="matrix(1 0 0 0.9375 0 6.9033)" gradientUnits="userSpaceOnUse">
				<stop  offset="0.5179" style="stop-color:#FFFFFF"/>
				<stop  offset="1" style="stop-color:#000000"/>
			</radialGradient>
			<path opacity="0.1" fill="url(#SVGID_3_)" d="M22.199,13.26c0.017-0.046,0.033-0.093,0.048-0.14
				c-0.003,0-0.003-0.001-0.004-0.002C22.229,13.167,22.212,13.213,22.199,13.26z"/>
			
				<radialGradient id="SVGID_4_" cx="-2.7656" cy="-257.4956" r="47.7908" gradientTransform="matrix(0.8465 0.4991 -0.571 0.8511 -148.9077 194.5908)" gradientUnits="userSpaceOnUse">
				<stop  offset="0.5179" style="stop-color:#FFFFFF"/>
				<stop  offset="1" style="stop-color:#000000"/>
			</radialGradient>
			<path fill="url(#SVGID_4_)" d="M22.199,13.26c0.017-0.046,0.033-0.093,0.048-0.14c-0.003,0-0.003-0.001-0.004-0.002
				C22.229,13.167,22.212,13.213,22.199,13.26z"/>
		</g>
	</g>
	<polygon fill="#E64A55" points="9.248,9.078 6.88,11.306 15.05,18.827 25.107,8.749 22.903,6.544 14.957,14.277 	"/>
</g>
</svg>
